<svg fill="#000000" version="1.1" id="Capa_1" xmlns="http://www.w3.org/2000/svg" xmlns:xlink="http://www.w3.org/1999/xlink" 
	 width="800px" height="800px" viewBox="0 0 490 490" xml:space="preserve">
<g>
	<path d="M436.5,0H53.5C24,0,0,24,0,53.5v383C0,466,24,490,53.5,490h383c29.5,0,53.5-24,53.5-53.5V53.5C490,24,466.5,0,436.5,0z
		 M460,436.5c0,12.9-10.6,23.5-23.5,23.5h-383C40.6,460,30,449.4,30,436.5V53.5C30,40.6,40.6,30,53.5,30h383
		c12.9,0,23.5,10.6,23.5,23.5V436.5z"/>
	<path d="M245,100c-20.7,0-37.5,16.8-37.5,37.5S224.3,175,245,175s37.5-16.8,37.5-37.5S265.7,100,245,100z M245,145
		c-4.1,0-7.5-3.4-7.5-7.5s3.4-7.5,7.5-7.5s7.5,3.4,7.5,7.5S249.1,145,245,145z"/>
	<path d="M330,174h-25.6c-4.9-28.1-29.9-49-59.4-49s-54.5,20.9-59.4,49H160v30h170V174z M245,154c16,0,29.5,11.4,32.1,26H212.9
	C215.5,165.4,229,154,245,154z"/>
	<path d="M160,234h170v30H160V234z"/>
	<path d="M160,294h170v30H160V294z"/>
	<path d="M160,354h170v30H160V354z"/>
</g>
</svg>